<svg width="374" height="227" viewBox="0 0 374 227" fill="none" xmlns="http://www.w3.org/2000/svg">
<mask id="mask0_7052_11114" style="mask-type:alpha" maskUnits="userSpaceOnUse" x="0" y="0" width="374" height="227">
<rect width="374" height="227" fill="#C4C4C4"/>
</mask>
<g mask="url(#mask0_7052_11114)">
<path fill-rule="evenodd" clip-rule="evenodd" d="M164.135 5.97931C190.006 26.9411 198.019 54.6836 192.866 80.8877C201.918 91.7793 212.264 104.687 224.837 120.489C225.688 121.579 226.557 122.625 227.423 123.7L227.453 123.629C251.792 71.5979 238.642 17.0539 204.981 -14.1722C203.4 -15.5612 201.835 -16.9876 200.179 -18.3243C198.338 -19.8701 196.363 -21.5242 194.545 -23.2455C192.347 -21.3786 179.114 -9.83725 163.526 5.50511C163.729 5.6582 163.955 5.84862 164.135 5.97931Z" fill="#0F73AB"/>
<path fill-rule="evenodd" clip-rule="evenodd" d="M194.576 -23.1167L193.872 -23.7029C194.151 -23.5013 194.399 -23.3183 194.655 -23.0794C272.079 41.882 361.071 156.743 411.988 121.435C444.494 98.8194 446.093 48.5432 436.609 18.8816C436.154 17.7801 435.687 16.6338 435.175 15.5174C425.763 -5.61991 414.039 -24.9052 399.26 -41.7672C327.508 -107.24 245.151 -63.3078 194.576 -23.1167Z" fill="#D6DE24"/>
<path fill-rule="evenodd" clip-rule="evenodd" d="M227.425 123.703C226.559 122.624 225.69 121.582 224.839 120.492C212.265 104.69 201.919 91.7826 192.864 80.8872C165.191 223.509 -52.2358 205.96 -59.6613 48.8545C-60.6737 28.3034 -56.3306 7.56938 -51.9197 -5.27131C-52.6348 -3.45293 -53.587 -0.764558 -54.1515 0.840996C-86.055 95.6172 -37.8554 182.022 43.7192 203.663C120.183 223.949 194.001 194.964 227.425 123.703Z" fill="#F25921"/>
<path fill-rule="evenodd" clip-rule="evenodd" d="M436.607 18.8805C446.094 48.5459 444.495 98.8221 411.986 121.438C363.372 155.192 279.919 51.7383 204.98 -14.1715C238.641 17.0546 251.794 71.6024 227.456 123.596C227.456 123.596 227.456 123.634 227.426 123.704C379.171 312.264 490.448 146.376 436.607 18.8805Z" fill="#3D9CD6"/>
<path fill-rule="evenodd" clip-rule="evenodd" d="M86.5653 97.7301C94.051 100.15 105.01 101.688 111.465 101.371C103.659 101.949 69.4224 94.7281 60.3185 65.0814C50.5709 33.3997 73.965 0.515686 103.298 -6.05588C93.4865 -12.325 83.6599 -18.6576 76.6635 -22.7798C34.685 8.07672 27.9822 77.6122 86.5653 97.7301Z" fill="#F25921"/>
<path fill-rule="evenodd" clip-rule="evenodd" d="M103.276 -6.07392C123.773 -11.1706 146.948 -7.61973 163.527 5.50848C178.536 -9.3037 191.381 -20.4007 194.26 -22.8501C164.223 -43.8455 122.188 -48.3037 76.9391 -22.9547C76.9391 -22.9547 76.7736 -22.8501 76.6644 -22.7792C83.6571 -18.657 93.4573 -12.3244 103.276 -6.07392Z" fill="#0F73AB"/>
<path fill-rule="evenodd" clip-rule="evenodd" d="M189.492 94.6924C189.748 93.6656 190.056 92.6164 190.357 91.5522C190.56 90.7569 190.816 89.9317 191.012 89.0953C191.298 88.1917 191.498 87.2545 191.697 86.3771C192.092 84.5624 192.525 82.7627 192.864 80.8846L192.578 80.1304C192.578 80.1304 172.025 54.8074 148.695 32.2587C156.82 42.5119 160.204 56.245 156.519 69.7764C153.35 81.594 145.519 90.8353 135.56 96.2382C134.932 96.5892 134.292 96.8841 133.697 97.1754C133.31 97.3509 132.971 97.5786 132.598 97.728C131.714 98.1238 130.829 98.4412 129.941 98.8183C124.311 100.842 118.248 101.809 112.042 101.421C111.346 101.421 110.623 101.421 109.908 101.372C103.329 101.421 93.4839 99.9384 86.5628 97.728C27.9796 77.61 34.6824 8.07461 76.6646 -22.7782C33.8958 -46.9735 -28.2213 -62.9581 -50.0837 -9.98227C-50.5616 -8.89572 -51.1939 -7.0736 -52.0331 -4.81462C-56.3913 8.06715 -60.6441 28.5473 -59.6619 48.8519C-52.4886 200.707 150.818 222.162 189.492 94.6924Z" fill="#F58221"/>
<path fill-rule="evenodd" clip-rule="evenodd" d="M148.81 32.3797C162.061 45.2727 174.722 59.0468 192.866 80.8861C198.018 54.6819 190.006 26.9395 164.135 5.97769C163.954 5.85074 163.729 5.65657 163.525 5.50348C157.03 11.9182 150.078 19.0611 143.3 26.5512C145.306 28.3434 147.173 30.2999 148.81 32.3797Z" fill="#F25921"/>
<path fill-rule="evenodd" clip-rule="evenodd" d="M143.301 26.6142C150.121 18.9897 157.144 11.8058 163.7 5.3761L163.557 5.47317C147.118 -7.80438 123.776 -11.1723 103.276 -6.07561C114.665 2.04924 131.973 15.9578 140.625 24.4598C141.608 25.1169 142.451 25.8413 143.301 26.6142Z" fill="#F25921"/>
<path fill-rule="evenodd" clip-rule="evenodd" d="M115.187 101.465C111.405 101.521 107.559 101.043 103.746 100.08L103.746 100.027L103.66 100.027C80.7321 93.9299 67.078 70.5374 73.2163 47.7535L73.2163 47.7161L73.2163 47.6714C79.3735 24.8501 103.046 11.2962 126.007 17.3861C131.468 18.805 136.327 21.2619 140.599 24.4132C131.943 15.9374 114.66 2.04751 103.276 -6.07733L103.298 -6.07733L103.276 -6.11841L103.246 -6.07733L103.298 -6.05867C73.9653 0.512892 50.5674 33.3969 60.3187 65.0785C68.9673 93.1944 100.095 101.099 109.994 101.372C107.732 101.42 105.067 101.248 102.165 100.897C108.127 101.775 112.782 101.689 115.187 101.465Z" fill="#F58221"/>
</g>
</svg>
